<svg id="Capa_1" enable-background="new 0 0 512 512" height="512" viewBox="0 0 512 512" width="512" xmlns="http://www.w3.org/2000/svg"><g><path d="m10.302 512h89.601v-405.854h-89.601c-5.69 0-10.302 4.613-10.302 10.302v385.25c0 5.69 4.612 10.302 10.302 10.302z" fill="#eab14d"/><path d="m66.602 222.762v-52.158c0-3.414-2.767-6.181-6.181-6.181h-20.939c-3.414 0-6.181 2.767-6.181 6.181v52.158c0 3.414 2.767 6.181 6.181 6.181h20.939c3.413 0 6.181-2.767 6.181-6.181z" fill="#9dc6fb"/><path d="m66.602 320.583v-52.158c0-3.414-2.767-6.181-6.181-6.181h-20.939c-3.414 0-6.181 2.767-6.181 6.181v52.158c0 3.414 2.767 6.181 6.181 6.181h20.939c3.413 0 6.181-2.767 6.181-6.181z" fill="#9dc6fb"/><path d="m66.602 472.518v-52.158c0-3.414-2.767-6.181-6.181-6.181h-20.939c-3.414 0-6.181 2.767-6.181 6.181v52.158c0 3.414 2.767 6.181 6.181 6.181h20.939c3.413 0 6.181-2.767 6.181-6.181z" fill="#9dc6fb"/><path d="m501.698 512h-89.601v-405.854h89.601c5.69 0 10.302 4.612 10.302 10.302v385.25c0 5.69-4.612 10.302-10.302 10.302z" fill="#eab14d"/><path d="m99.902 33.301h312.195v478.699h-312.195z" fill="#f4d8a5"/><path d="m391.285 33.301h20.813v478.699h-20.813z" fill="#ecbe6b"/><g fill="#9dc6fb"><g><path d="m133.203 124.941v-52.158c0-3.414 2.767-6.181 6.181-6.181h20.939c3.414 0 6.181 2.767 6.181 6.181v52.158c0 3.414-2.767 6.181-6.181 6.181h-20.939c-3.413 0-6.181-2.767-6.181-6.181z"/><path d="m203.967 124.941v-52.158c0-3.414 2.767-6.181 6.181-6.181h20.939c3.414 0 6.181 2.767 6.181 6.181v52.158c0 3.414-2.767 6.181-6.181 6.181h-20.939c-3.413 0-6.181-2.767-6.181-6.181z"/><path d="m274.732 124.941v-52.158c0-3.414 2.767-6.181 6.181-6.181h20.939c3.414 0 6.181 2.767 6.181 6.181v52.158c0 3.414-2.767 6.181-6.181 6.181h-20.939c-3.414 0-6.181-2.767-6.181-6.181z"/><path d="m345.496 124.941v-52.158c0-3.414 2.767-6.181 6.181-6.181h20.939c3.414 0 6.181 2.767 6.181 6.181v52.158c0 3.414-2.767 6.181-6.181 6.181h-20.939c-3.414 0-6.181-2.767-6.181-6.181z"/></g><g><path d="m133.203 222.762v-52.158c0-3.414 2.767-6.181 6.181-6.181h20.939c3.414 0 6.181 2.767 6.181 6.181v52.158c0 3.414-2.767 6.181-6.181 6.181h-20.939c-3.413 0-6.181-2.767-6.181-6.181z"/><path d="m203.967 222.762v-52.158c0-3.414 2.767-6.181 6.181-6.181h20.939c3.414 0 6.181 2.767 6.181 6.181v52.158c0 3.414-2.767 6.181-6.181 6.181h-20.939c-3.413 0-6.181-2.767-6.181-6.181z"/><path d="m274.732 222.762v-52.158c0-3.414 2.767-6.181 6.181-6.181h20.939c3.414 0 6.181 2.767 6.181 6.181v52.158c0 3.414-2.767 6.181-6.181 6.181h-20.939c-3.414 0-6.181-2.767-6.181-6.181z"/><path d="m345.496 222.762v-52.158c0-3.414 2.767-6.181 6.181-6.181h20.939c3.414 0 6.181 2.767 6.181 6.181v52.158c0 3.414-2.767 6.181-6.181 6.181h-20.939c-3.414 0-6.181-2.767-6.181-6.181z"/></g><g><path d="m133.203 320.583v-52.158c0-3.414 2.767-6.181 6.181-6.181h20.939c3.414 0 6.181 2.767 6.181 6.181v52.158c0 3.414-2.767 6.181-6.181 6.181h-20.939c-3.413 0-6.181-2.767-6.181-6.181z"/><path d="m203.967 320.583v-52.158c0-3.414 2.767-6.181 6.181-6.181h20.939c3.414 0 6.181 2.767 6.181 6.181v52.158c0 3.414-2.767 6.181-6.181 6.181h-20.939c-3.413 0-6.181-2.767-6.181-6.181z"/><path d="m274.732 320.583v-52.158c0-3.414 2.767-6.181 6.181-6.181h20.939c3.414 0 6.181 2.767 6.181 6.181v52.158c0 3.414-2.767 6.181-6.181 6.181h-20.939c-3.414 0-6.181-2.767-6.181-6.181z"/><path d="m345.496 320.583v-52.158c0-3.414 2.767-6.181 6.181-6.181h20.939c3.414 0 6.181 2.767 6.181 6.181v52.158c0 3.414-2.767 6.181-6.181 6.181h-20.939c-3.414 0-6.181-2.767-6.181-6.181z"/></g><path d="m133.203 472.518v-39.67c0-3.414 2.767-6.181 6.181-6.181h35.508c3.414 0 6.181 2.767 6.181 6.181v39.67c0 3.414-2.767 6.181-6.181 6.181h-35.508c-3.413 0-6.181-2.767-6.181-6.181z"/><path d="m214.374 512v-80.182c0-2.845 2.306-5.151 5.151-5.151h36.475v85.333z"/><path d="m378.797 472.518v-39.67c0-3.414-2.767-6.181-6.181-6.181h-35.508c-3.414 0-6.181 2.767-6.181 6.181v39.67c0 3.414 2.767 6.181 6.181 6.181h35.508c3.413 0 6.181-2.767 6.181-6.181z"/><path d="m297.626 512v-80.182c0-2.845-2.306-5.151-5.151-5.151h-36.475v85.333z"/></g><path d="m89.496 387.185v-20.939c0-3.414 2.767-6.181 6.181-6.181h320.646c3.414 0 6.181 2.767 6.181 6.181v20.939c0 3.414-2.767 6.181-6.181 6.181h-320.646c-3.414 0-6.181-2.768-6.181-6.181z" fill="#e49542"/><path d="m397.528 360.065v33.301h18.795c3.414 0 6.181-2.767 6.181-6.181v-20.939c0-3.414-2.767-6.181-6.181-6.181z" fill="#e28424"/><path d="m89.496 27.12v-20.939c0-3.414 2.767-6.181 6.181-6.181h320.646c3.414 0 6.181 2.767 6.181 6.181v20.939c0 3.414-2.767 6.181-6.181 6.181h-320.646c-3.414 0-6.181-2.768-6.181-6.181z" fill="#e49542"/><path d="m397.528 0v33.301h18.795c3.414 0 6.181-2.767 6.181-6.181v-20.939c0-3.414-2.767-6.181-6.181-6.181z" fill="#e28424"/><path d="m445.398 222.762v-52.158c0-3.414 2.767-6.181 6.181-6.181h20.939c3.414 0 6.181 2.767 6.181 6.181v52.158c0 3.414-2.767 6.181-6.181 6.181h-20.939c-3.413 0-6.181-2.767-6.181-6.181z" fill="#9dc6fb"/><path d="m445.398 320.583v-52.158c0-3.414 2.767-6.181 6.181-6.181h20.939c3.414 0 6.181 2.767 6.181 6.181v52.158c0 3.414-2.767 6.181-6.181 6.181h-20.939c-3.413 0-6.181-2.767-6.181-6.181z" fill="#9dc6fb"/><path d="m445.398 472.518v-52.158c0-3.414 2.767-6.181 6.181-6.181h20.939c3.414 0 6.181 2.767 6.181 6.181v52.158c0 3.414-2.767 6.181-6.181 6.181h-20.939c-3.413 0-6.181-2.767-6.181-6.181z" fill="#9dc6fb"/><path d="m248.274 426.667h15.453v85.334h-15.453z" fill="#80b4fb"/></g></svg>