<svg id="Capa_1" enable-background="new 0 0 512 512" height="512" viewBox="0 0 512 512" width="512" xmlns="http://www.w3.org/2000/svg"><g><g><path d="m434.168 507.646c-4.265 0-7.722-3.457-7.722-7.722v-20.591c0-4.265 3.457-7.722 7.722-7.722s7.722 3.457 7.722 7.722v20.591c0 4.265-3.457 7.722-7.722 7.722z" fill="#3c87d0"/></g><g><path d="m479.314 245.606c-4.265 0-7.722-3.457-7.722-7.722v-134.077c0-10.385-8.449-18.834-18.834-18.834-4.265 0-7.722-3.457-7.722-7.722s3.457-7.722 7.722-7.722c18.9 0 34.277 15.377 34.277 34.277v134.078c.001 4.265-3.456 7.722-7.721 7.722z" fill="#3c87d0"/></g><g><path d="m74.812 466.019h-42.641c-3.98 0-7.207-3.227-7.207-7.207v-416.26c0-3.98 3.227-7.207 7.207-7.207h42.641l3.089 3.931v423.654z" fill="#e19974"/><g fill="#f07281"><path d="m124.66 512-24.924-10.532-24.924 10.532v-45.981l4.361-3.089h41.44l4.047 3.089z"/><path d="m124.66 35.346v-28.139c0-3.98-3.227-7.207-7.207-7.207h-35.434c-3.98 0-7.207 3.227-7.207 7.207v28.139l3.846 3.089h42.341z"/><path d="m368.839 155.04h-23.68l-3.089-3.37v-54.223l3.089-4.181h23.68c3.98 0 7.207 3.227 7.207 7.207v47.36c0 3.981-3.226 7.207-7.207 7.207z"/></g><path d="m368.839 278.588h-23.68l-3.089-4.228v-52.679l3.089-4.867h23.68c3.98 0 7.207 3.227 7.207 7.207v47.36c0 3.98-3.226 7.207-7.207 7.207z" fill="#5f99d7"/><path d="m368.839 402.136h-23.68l-3.089-3.884v-53.537l3.089-4.352h23.68c3.98 0 7.207 3.227 7.207 7.207v47.36c0 3.979-3.226 7.206-7.207 7.206z" fill="#fff0ad"/><path d="m45.555 458.811v-416.258c0-3.98 3.227-7.207 7.207-7.207h-20.591c-3.98 0-7.207 3.227-7.207 7.207v416.259c0 3.98 3.227 7.207 7.207 7.207h20.591c-3.98-.001-7.207-3.227-7.207-7.208z" fill="#dc8758"/><path d="m338.159 466.019h-263.347v-430.673h263.347c3.866 0 7 3.134 7 7v416.673c0 3.865-3.134 7-7 7z" fill="#fedba6"/><path d="m105.699 409.405v-374.059h-30.887v430.673h263.14c3.98 0 7.207-3.227 7.207-7.207v-18.52h-208.573c-17.058 0-30.887-13.829-30.887-30.887z" fill="#fece85"/><circle cx="208.201" cy="196.473" fill="#8ac9fe" r="85.234"/><path d="m153.854 196.473c0-41.797 30.094-76.542 69.79-83.812-5.011-.918-10.167-1.422-15.443-1.422-47.073 0-85.234 38.16-85.234 85.234 0 47.073 38.16 85.234 85.234 85.234 5.276 0 10.432-.504 15.443-1.422-39.696-7.27-69.79-42.016-69.79-83.812z" fill="#60b7ff"/><path d="m122.967 196.472c0 3.801.274 7.535.756 11.204l29.604 6.345 31.734 19.882 22.845-13.543-11.422-31.243 11.422-26.11-22.834-48.567c-35.829 10.084-62.105 42.979-62.105 82.032z" fill="#b0ef9a"/><path d="m184.215 214.022-29.604-6.345c-.482-3.669-.756-7.404-.756-11.204 0-29.084 14.579-54.745 36.818-70.12l-5.6-11.911c-35.829 10.083-62.105 42.978-62.105 82.031 0 3.801.274 7.535.756 11.204l29.604 6.345 31.734 19.882 15.87-9.408z" fill="#9be27d"/><path d="m293.435 196.472c0-10.796-2.028-21.113-5.689-30.619l-32.491 16.252v32.945l22.302 30.935c9.983-13.958 15.878-31.042 15.878-49.513z" fill="#b0ef9a"/></g><g><path d="m454.638 407.263-6.238 3.089h-28.055l-6.889-3.089v-330.011l5.344-3.415h31.402l4.436 3.415z" fill="#5f99d7"/><path d="m454.638 77.252h-41.183v-44.75c0-11.372 9.219-20.591 20.591-20.591 11.372 0 20.591 9.219 20.591 20.591v44.75z" fill="#eaf6ff"/><path d="m434.047 77.252v-44.75c0-7.617 4.147-14.252 10.296-17.814-3.031-1.756-6.541-2.777-10.296-2.777-11.372 0-20.591 9.219-20.591 20.591v44.749h20.591z" fill="#d8ecfe"/><path d="m454.638 407.263-12.869 72.07h-7.722-7.722l-12.869-72.07z" fill="#eaf6ff"/><path d="m434.047 407.263h-20.591l12.869 72.07h7.722 7.722l2.574-14.414z" fill="#d8ecfe"/><path d="m413.456 77.252h20.591v330.012h-20.591z" fill="#3c87d0"/></g><g><path d="m292.947 349.603h-169.878c-4.265 0-7.722-3.457-7.722-7.722s3.457-7.722 7.722-7.722h169.878c4.265 0 7.722 3.457 7.722 7.722s-3.457 7.722-7.722 7.722z" fill="#e19974"/></g><g><path d="m292.947 403.709h-169.878c-4.265 0-7.722-3.457-7.722-7.722s3.457-7.722 7.722-7.722h169.878c4.265 0 7.722 3.457 7.722 7.722s-3.457 7.722-7.722 7.722z" fill="#e19974"/></g></g></svg>