<svg id="Capa_1" enable-background="new 0 0 512 512" height="512" viewBox="0 0 512 512" width="512" xmlns="http://www.w3.org/2000/svg"><g><g><path d="m460.491 472.338h-439.887v-432.676h439.887c28.448 0 51.509 23.061 51.509 51.509v329.658c0 28.448-23.061 51.509-51.509 51.509z" fill="#f2f2f2"/></g><g><path d="m20.604 39.662h82.414v432.676h-82.414z" fill="#e8e8e8"/></g><g><path d="m20.604 39.662h439.887c28.448 0 51.509 23.061 51.509 51.509v82.414h-491.396z" fill="#fab659"/></g><g><path d="m20.604 39.662h82.414v133.924h-82.414z" fill="#f59e18"/></g><g><path d="m20.604 338.414h491.396v82.414c0 28.448-23.061 51.509-51.509 51.509h-439.887z" fill="#60d9a7"/></g><g><path d="m20.604 338.414h82.414v133.924h-82.414z" fill="#00c67f"/></g><g><path d="m20.604 512c-11.379 0-20.604-9.225-20.604-20.604v-470.792c0-11.379 9.225-20.604 20.604-20.604 11.379 0 20.604 9.225 20.604 20.604v470.793c-.001 11.378-9.225 20.603-20.604 20.603z" fill="#de8957"/></g><g><path d="m20.604 359.018c-11.379 0-20.604-9.224-20.604-20.604v152.982c0 11.379 9.225 20.604 20.604 20.604s20.604-9.225 20.604-20.604v-152.982c-.001 11.38-9.225 20.604-20.604 20.604z" fill="#c76d33"/></g><path d="m276.604 196.991c-32.537 0-59.009 26.472-59.009 59.009s26.472 59.009 59.009 59.009 59.009-26.472 59.009-59.009-26.472-59.009-59.009-59.009zm35.947 84.349-17.84-17.84h25.249c-1.131 6.555-3.714 12.614-7.409 17.84zm-79.304-17.84h25.25l-17.841 17.841c-3.695-5.226-6.278-11.286-7.409-17.841zm7.409-32.841 17.841 17.841h-25.25c1.131-6.555 3.714-12.615 7.409-17.841zm43.448-18.016c6.555 1.131 12.615 3.714 17.841 7.409l-17.841 17.841zm-15 25.25-17.84-17.84c5.226-3.695 11.286-6.278 17.84-7.409zm0 36.214v25.249c-6.555-1.131-12.615-3.714-17.84-7.409zm15-.001 17.841 17.841c-5.226 3.695-11.286 6.279-17.841 7.409zm10.607-25.606 17.84-17.84c3.695 5.226 6.278 11.286 7.409 17.84z" fill="#34b5e1"/></g></svg>